<svg class="icon--bag" width="21" height="19" viewBox="0 0 21 19" fill="none" xmlns="http://www.w3.org/2000/svg">
    <path fill-rule="evenodd" clip-rule="evenodd" d="M20.8206 5.10763C20.683 4.93973 20.4804 4.84294 20.2671 4.84312H16.5954C16.2334 2.07204 13.9384 0.00299548 11.2235 0H9.77651C7.06155 0.00299548 4.76661 2.07204 4.40461 4.84312H0.732911C0.519578 4.84294 0.317042 4.93973 0.179443 5.10763C0.0370389 5.27493 -0.025319 5.49902 0.00942287 5.71861L1.93752 17.0068C2.14125 18.1655 3.12374 19.0061 4.26715 18.9999H16.7328C17.8733 19.0004 18.8502 18.1591 19.0516 17.0031L20.9906 5.71861C21.0253 5.49902 20.963 5.27493 20.8206 5.10763ZM9.77651 1.49019H11.2235C13.1412 1.49139 14.7853 2.90106 15.1339 4.84312H5.86606C6.21473 2.90106 7.85881 1.49139 9.77651 1.49019ZM16.7329 17.5097C17.1725 17.5102 17.5497 17.1874 17.63 16.7423L19.4061 6.33331H1.59386L3.37364 16.7646C3.46014 17.2011 3.83462 17.5134 4.26715 17.5097H16.7329Z" fill="currentColor"/>
    </svg>